<svg id="Layer_1" data-name="Layer 1" xmlns="http://www.w3.org/2000/svg" xmlns:xlink="http://www.w3.org/1999/xlink" viewBox="0 0 196.79 37.96"><defs><style>.cls-1{fill:none;}.cls-2{clip-path:url(#clip-path);}.cls-3{fill:#ed243d;}.cls-4{fill:#1a1a1a;}</style><clipPath id="clip-path"><rect class="cls-1" width="41.88" height="37.96"/></clipPath></defs><g class="cls-2"><path class="cls-3" d="M41.88,17.75v2.46c0,.12-.05.24-.07.35-.18,1.06-.27,2.15-.55,3.18A18.9,18.9,0,0,1,24.85,37.85a18.6,18.6,0,0,1-13.41-3.76.69.69,0,0,1-.32-.63q0-14.48,0-29a.71.71,0,0,1,.33-.64,18.91,18.91,0,0,1,21.41-1,18.7,18.7,0,0,1,8.72,12.82c.13.69.2,1.39.3,2.09m-19,10.39A9.16,9.16,0,1,0,13.74,19a9.18,9.18,0,0,0,9.16,9.16"/><path class="cls-3" d="M0,17.67c.11-.82.19-1.64.33-2.46s.33-1.56.51-2.38l3.27.94a.69.69,0,0,1,.47.77v8.83c0,.54-.13.71-.63.86L.8,25.14C.58,24,.37,22.81.17,21.66c-.08-.45-.12-.91-.17-1.37Z"/><path class="cls-3" d="M1.27,26.37l2.95-.85a2,2,0,0,0,1.67-2.24V14.61a2,2,0,0,0-1.61-2.15c-1-.29-1.93-.56-2.9-.84l-.1-.07c.12-.32.24-.65.37-1A22.55,22.55,0,0,1,6,3.83a1.56,1.56,0,0,1,1.29-.56c.42,0,.85,0,1.27,0A1.3,1.3,0,0,1,9.81,4.55c0,.13,0,.25,0,.37V33.06c0,1.17-.46,1.63-1.64,1.63-1.84,0-1.58.2-2.93-1.38a21.7,21.7,0,0,1-3.81-6.48c-.06-.14-.1-.28-.17-.46"/><path class="cls-3" d="M15.05,19a7.86,7.86,0,1,1,7.83,7.87A7.86,7.86,0,0,1,15.05,19m11.12,0a3.27,3.27,0,1,0-3.29,3.25A3.27,3.27,0,0,0,26.17,19M22.9,13.09a.66.66,0,1,0,.66.65.67.67,0,0,0-.66-.65M19,14.4a.66.66,0,0,0-.67.63.65.65,0,1,0,1.3,0A.66.66,0,0,0,19,14.4m8.48.67a.65.65,0,1,0-1.3,0,.65.65,0,0,0,.63.66.66.66,0,0,0,.67-.63M17,19a.65.65,0,0,0,1.3.06.66.66,0,0,0-.62-.68A.66.66,0,0,0,17,19m11.77,0a.65.65,0,1,0-.63.67.66.66,0,0,0,.63-.67M19,22.26a.65.65,0,0,0,0,1.3.65.65,0,1,0,0-1.3m8.52.66a.65.65,0,0,0-1.3,0,.65.65,0,1,0,1.3,0m-4.61,1.95a.67.67,0,0,0,.69-.62.66.66,0,0,0-1.31-.07.67.67,0,0,0,.62.69"/></g><path class="cls-4" d="M63.75,24.25H54.58L52.41,30h-5L57,5.45h2.17a3,3,0,0,1,3.08,2.1L70.93,30h-5Zm-7.87-4.06h6.58l-3.25-8.82h0Z"/><path class="cls-4" d="M73.56,28.36a7.09,7.09,0,0,1-1.68-4.92v-11h4.76v11a3,3,0,0,0,.57,1.88,1.9,1.9,0,0,0,1.53.71h2a2.89,2.89,0,0,0,2.1-1A5.37,5.37,0,0,0,84.2,22.6V12.49H89V30H84.55V27.71a6.48,6.48,0,0,1-2,1.82,4.39,4.39,0,0,1-2.26.7H78A5.67,5.67,0,0,1,73.56,28.36Z"/><path class="cls-4" d="M95.46,28.55A5.85,5.85,0,0,1,94,24.21V16.55H91V12.49h3.22V7.2h4.62v5.29h4.55v4.06H98.79V24a2.26,2.26,0,0,0,.37,1.44,1.41,1.41,0,0,0,1.17.45h3V30H100A6.26,6.26,0,0,1,95.46,28.55Z"/><path class="cls-4" d="M108.33,29.37a6.25,6.25,0,0,1-2.63-2.43,7,7,0,0,1-.92-3.64V19.21a7,7,0,0,1,.94-3.66,6.49,6.49,0,0,1,2.64-2.47,8.44,8.44,0,0,1,3.91-.87h3.14a8.44,8.44,0,0,1,3.91.87A6.49,6.49,0,0,1,122,15.55a7,7,0,0,1,1,3.66V23.3a6.93,6.93,0,0,1-1,3.64,6.33,6.33,0,0,1-2.64,2.43,8.53,8.53,0,0,1-3.94.86h-3.15A8.42,8.42,0,0,1,108.33,29.37Zm7-3.23a2.57,2.57,0,0,0,2.06-.9,3.39,3.39,0,0,0,.78-2.32v-3.4a3.44,3.44,0,0,0-.78-2.33,2.54,2.54,0,0,0-2-.89h-3a2.55,2.55,0,0,0-2,.89,3.43,3.43,0,0,0-.77,2.33v3.4a3.39,3.39,0,0,0,.77,2.32,2.48,2.48,0,0,0,2,.9Z"/><path class="cls-4" d="M127.74,35.47a5.93,5.93,0,0,1-2.07-4.19h4.69a1.77,1.77,0,0,0,.63,1.24,2.07,2.07,0,0,0,1.4.48h3.15a2.14,2.14,0,0,0,1.77-.9,3.74,3.74,0,0,0,.68-2.32V28.13a5.16,5.16,0,0,1-1.7,1.23,4.61,4.61,0,0,1-1.9.45H132a7.06,7.06,0,0,1-5.13-1.89,6.63,6.63,0,0,1-1.94-5V19.38a7.53,7.53,0,0,1,.91-3.76,6.28,6.28,0,0,1,2.56-2.52,7.71,7.71,0,0,1,3.78-.89h2a5.47,5.47,0,0,1,4.16,2V12.49h4.41V29.78a7.91,7.91,0,0,1-.89,3.81,6.32,6.32,0,0,1-2.54,2.56,7.77,7.77,0,0,1-3.78.91h-3.15A6.87,6.87,0,0,1,127.74,35.47Zm7-9.68a2.79,2.79,0,0,0,2.24-1.11A5,5,0,0,0,138,21.8V19.38a3.63,3.63,0,0,0-1-2.24,2.67,2.67,0,0,0-2-.84h-2.45a2.65,2.65,0,0,0-2.11.95,3.73,3.73,0,0,0-.8,2.48V22.6a3.46,3.46,0,0,0,.74,2.31,2.34,2.34,0,0,0,1.89.88Z"/><path class="cls-4" d="M149,29.41a6.33,6.33,0,0,1-2.64-2.31,6.23,6.23,0,0,1-.95-3.41V19.17a7,7,0,0,1,.95-3.64A6.51,6.51,0,0,1,149,13.08a8.42,8.42,0,0,1,3.9-.87h2.8a7.59,7.59,0,0,1,5.39,1.89,6.53,6.53,0,0,1,2,5v3.71h-13v.84a2.42,2.42,0,0,0,.74,1.85,2.75,2.75,0,0,0,2,.7h2.73a3.32,3.32,0,0,0,2-.54,1.67,1.67,0,0,0,.75-1.42h4.69a5.34,5.34,0,0,1-.94,3.12,6,6,0,0,1-2.64,2.1,9.81,9.81,0,0,1-3.91.73h-2.66A8.8,8.8,0,0,1,149,29.41Zm9.43-10v-.28a3.17,3.17,0,0,0-.73-2.19,2.49,2.49,0,0,0-2-.82h-2.84a2.59,2.59,0,0,0-2,.87,3.41,3.41,0,0,0-.77,2.31v.11Z"/><path class="cls-4" d="M166.83,28.87a4.42,4.42,0,0,1-1.68-3.61V24a4.27,4.27,0,0,1,1.75-3.56,7.43,7.43,0,0,1,4.62-1.34h2.13a8.8,8.8,0,0,1,2,.24,9.73,9.73,0,0,1,1.93.67V18.16a1.83,1.83,0,0,0-.58-1.42,2.12,2.12,0,0,0-1.52-.54h-3a2.57,2.57,0,0,0-1.58.45,1.48,1.48,0,0,0-.59,1.23h-4.62a5.09,5.09,0,0,1,1.87-4.12,7.49,7.49,0,0,1,4.92-1.55h3a7.38,7.38,0,0,1,5,1.62,5.44,5.44,0,0,1,1.89,4.33V30h-4.41v-2.1a6.19,6.19,0,0,1-2.07,1.73,5,5,0,0,1-2.41.65h-2.17A6.77,6.77,0,0,1,166.83,28.87Zm6.93-2.28a4.16,4.16,0,0,0,2.31-.66,3.79,3.79,0,0,0,1.47-1.79v-.59a4.46,4.46,0,0,0-1.56-.67,9,9,0,0,0-2.12-.24h-2.2a2.13,2.13,0,0,0-1.37.42,1.35,1.35,0,0,0-.52,1.12v.91a1.27,1.27,0,0,0,.58,1.08,2.51,2.51,0,0,0,1.52.42Z"/><path class="cls-4" d="M185.48,12.49h4.41v2.24a5.05,5.05,0,0,1,1.91-1.67,5.59,5.59,0,0,1,2.61-.64h2.38v4.13h-2.38a4.12,4.12,0,0,0-3,1.12,3.81,3.81,0,0,0-1.16,2.87V30h-4.76Z"/></svg>